<svg version="1.2" xmlns="http://www.w3.org/2000/svg" viewBox="0 0 24 14" width="24" height="14" fill="currentcolor">
	<title>file-svg</title>
	<style>
		.s0 { fill: none } 
		.s1 { fill: currentColor;stroke: currentColor;stroke-width: .4 } 
	</style>
	<path id="Layer" class="s0" d="m-8-5c0-4.4 3.6-8 8-8h24c4.4 0 8 3.6 8 8v24c0 4.4-3.6 8-8 8h-24c-4.4 0-8-3.6-8-8z"/>
	<path id="Layer" class="s1" d="m9.5 1.4h0.6v7.8l-4.3-8.2v-0.1h-0.1-4.7-0.1v0.1 0.3 0.1h0.1 0.8v11.2h-0.8-0.1v0.1 0.3 0.1h0.1 2.4 0.1v-0.1-0.3-0.1h-0.1-0.9v-10.3l5.7 10.8h0.1 1.1 0.1 1.2 0.1 1 0.1v-0.1-0.3-0.1h-0.1-0.9v-10.2l2.9 10.6 0.1 0.1h2.2 0.1v-0.1l2.4-10.5v10.1h-0.8-0.1v0.1 0.3 0.1h0.1 5.2 0.1v-0.1-0.3-0.1h-0.1-0.8v-11.2h0.8 0.1v-0.1-0.3-0.1h-0.1-4.6-0.1v0.1l-1.9 8.4-2.2-8.4v-0.1h-0.1-2.3-0.1-2.2-0.1-0.1-0.1v0.1 0.3 0.1h0.1 0.1z"/>
</svg>