<svg width="22" height="17" viewBox="0 0 22 17" fill="curentcolor" xmlns="http://www.w3.org/2000/svg">
<path d="M18.6523 1.42578C21.1369 5.10474 22.364 9.25451 21.9053 14.0318C21.9034 14.0521 21.8929 14.0706 21.8764 14.0828C19.9949 15.4742 18.1719 16.3186 16.3745 16.8786C16.3605 16.8829 16.3455 16.8826 16.3317 16.8779C16.3178 16.8732 16.3058 16.8642 16.2972 16.8523C15.882 16.2704 15.5047 15.657 15.1741 15.0128C15.1551 14.9748 15.1725 14.9291 15.2115 14.9142C15.8107 14.6868 16.3805 14.4143 16.9286 14.0917C16.9718 14.0662 16.9745 14.0039 16.9347 13.974C16.8183 13.887 16.7031 13.7956 16.5928 13.7042C16.5722 13.6873 16.5444 13.684 16.5211 13.6953C12.9628 15.3501 9.065 15.3501 5.46471 13.6953C5.44133 13.6848 5.41356 13.6884 5.39348 13.705C5.28348 13.7964 5.16798 13.887 5.05276 13.974C5.01288 14.0039 5.01618 14.0662 5.05963 14.0917C5.60771 14.4082 6.17751 14.6868 6.77591 14.9153C6.81468 14.9303 6.83311 14.9748 6.81386 15.0128C6.49046 15.6578 6.11316 16.2712 5.69021 16.8531C5.67178 16.8766 5.64153 16.8874 5.61293 16.8786C3.82406 16.3186 2.00109 15.4742 0.119543 14.0828C0.103868 14.0706 0.0925931 14.0512 0.0909431 14.031C-0.292406 9.89869 0.488867 5.71458 3.34089 1.42495C3.34776 1.4136 3.35821 1.40473 3.37031 1.39947C4.77363 0.750862 6.27706 0.273683 7.8484 0.00116747C7.87701 -0.00326367 7.9056 0.0100298 7.92045 0.0355089C8.1146 0.381692 8.33653 0.825638 8.48668 1.18844C10.143 0.933647 11.8252 0.933647 13.5161 1.18844C13.6663 0.833392 13.8805 0.381692 14.0738 0.0355089C14.0807 0.022869 14.0914 0.0127425 14.1043 0.00657534C14.1173 0.000408141 14.1318 -0.00148455 14.1459 0.00116747C15.7181 0.274514 17.2215 0.751693 18.6237 1.39947C18.6361 1.40473 18.6463 1.4136 18.6523 1.42578ZM9.32873 9.28276C9.34605 8.06115 8.46165 7.05029 7.35148 7.05029C6.25038 7.05029 5.37451 8.05228 5.37451 9.28276C5.37451 10.513 6.26771 11.5149 7.35148 11.5149C8.45285 11.5149 9.32873 10.513 9.32873 9.28276ZM16.6388 9.28276C16.6561 8.06115 15.7717 7.05029 14.6618 7.05029C13.5604 7.05029 12.6845 8.05228 12.6845 9.28276C12.6845 10.513 13.5777 11.5149 14.6618 11.5149C15.7717 11.5149 16.6388 10.513 16.6388 9.28276Z" fill="curentcolor"/>
</svg>
