<svg width="16" height="18" viewBox="0 0 16 18" fill="curentcolor" xmlns="http://www.w3.org/2000/svg">
<path d="M16 11.2V1.6C16 0.716331 15.2321 0 14.2858 0H3.42859C1.53504 0 0 1.43264 0 3.2V13.8667C0 15.634 1.53504 17.0667 3.42859 17.0667H14.8572C15.4882 17.0667 16 16.589 16 16.03C16 15.6394 15.7641 15.3126 15.4286 15.1266V12.4147C15.7786 12.0933 16 11.6734 16 11.2ZM13.7142 14.9333H3.42859C2.79755 14.9333 2.28576 14.4557 2.28576 13.8667C2.28576 13.2777 2.79755 12.8 3.42859 12.8H13.7142V14.9333Z" fill="curentcolor"/>
</svg>
