<svg version="1.2" xmlns="http://www.w3.org/2000/svg" viewBox="0 0 20 20" width="20" height="20" fill="curentcolor">
	<title>file-svg</title>
	<style>
		.s0 { fill: none } 
		.s1 { fill: currentColor } 
	</style>
	<path id="Layer" class="s0" d="m-10-2c0-4.4 3.6-8 8-8h24c4.4 0 8 3.6 8 8v24c0 4.4-3.6 8-8 8h-24c-4.4 0-8-3.6-8-8z"/>
	<path id="Layer" fill="currentcolor" d="m19.6 0.4c0.2 0.3 0.4 0.7 0.4 1.1v17c0 0.4-0.2 0.8-0.4 1.1-0.3 0.2-0.7 0.4-1.1 0.4h-17c-0.4 0-0.8-0.2-1.1-0.4-0.2-0.3-0.4-0.7-0.4-1.1v-17c0-0.4 0.2-0.8 0.4-1.1 0.3-0.2 0.7-0.4 1.1-0.4h17c0.4 0 0.8 0.2 1.1 0.4zm-13.6 7.6h-3v9h3zm-0.2-2.3c0.3-0.3 0.5-0.7 0.5-1.2q0-0.5-0.3-1-0.3-0.4-0.8-0.6-0.5-0.2-1-0.1-0.5 0.1-0.9 0.4-0.3 0.4-0.5 0.9-0.1 0.5 0.1 1 0.2 0.5 0.6 0.8 0.5 0.3 1 0.3c0.5 0.1 0.9-0.1 1.3-0.5zm11.2 5.9c0-2.8-1.9-3.7-3.4-3.7q-0.8 0-1.5 0.3-0.8 0.4-1.2 1.1v-1.3h-2.9v9h3v-4.7q0 0 0-0.1 0-0.4 0.1-0.7 0.1-0.3 0.3-0.6 0.3-0.2 0.6-0.4 0.3-0.1 0.6-0.2c0.8 0 1.4 0.5 1.4 2v4.7h3z"/>
</svg>