<svg width="89" height="17" viewBox="0 0 89 17" fill="none" xmlns="http://www.w3.org/2000/svg">
<path d="M2.72721 16.2626V9.09365C3.72703 7.17909 5.40758 6.24309 7.40723 6.24309C9.72597 6.24309 10.896 7.47691 10.896 9.77438V16.2626H13.3636V9.6042C13.3636 6.45581 11.598 4.17962 8.04542 4.17962C5.66286 4.17962 3.7483 5.20072 2.72721 6.86V4.60508H0.238281V16.2626H2.72721Z" fill="currentcolor"/>
<path d="M22.8719 4.17962C20.7659 4.17962 18.5323 4.75399 17.0857 5.62617L17.9792 7.30673C19.3194 6.51963 20.6808 6.13672 22.4039 6.13672C25.4034 6.13672 26.935 7.26418 26.935 9.77438V10.6253C26.0203 9.49783 24.2334 8.54055 21.8508 8.54055C19.3406 8.54055 16.0008 9.56165 16.0008 12.6037C16.0008 15.667 19.3406 16.6881 21.8508 16.6881C24.2334 16.6881 26.0203 15.7308 26.935 14.6033V14.6246C26.935 15.1777 27.084 15.7521 27.3818 16.2626H29.9558C29.5729 15.5819 29.424 14.8799 29.424 14.0077V9.77438C29.424 6.11545 26.935 4.17962 22.8719 4.17962ZM26.9776 12.7951C26.0416 14.3906 24.0632 14.9011 22.3188 14.9011C20.7659 14.9011 18.4472 14.497 18.4472 12.6037C18.4472 10.7317 20.7659 10.3275 22.3188 10.3275C24.0632 10.3275 26.0416 10.8167 26.9776 12.4335V12.7951Z" fill="currentcolor"/>
<path d="M35.6129 16.2626V9.81693C36.4 7.62582 38.5273 6.54091 41.1225 6.54091V4.37107C38.7187 4.37107 36.5489 5.39217 35.6129 7.26418V4.60508H33.124V16.2626H35.6129Z" fill="currentcolor"/>
<path d="M48.7982 4.17962C46.6922 4.17962 44.4586 4.75399 43.012 5.62617L43.9055 7.30673C45.2457 6.51963 46.6071 6.13672 48.3302 6.13672C51.3297 6.13672 52.8613 7.26418 52.8613 9.77438V10.6253C51.9466 9.49783 50.1597 8.54055 47.7771 8.54055C45.2669 8.54055 41.9271 9.56165 41.9271 12.6037C41.9271 15.667 45.2669 16.6881 47.7771 16.6881C50.1597 16.6881 51.9466 15.7308 52.8613 14.6033V14.6246C52.8613 15.1777 53.0102 15.7521 53.3081 16.2626H55.8821C55.4992 15.5819 55.3503 14.8799 55.3503 14.0077V9.77438C55.3503 6.11545 52.8613 4.17962 48.7982 4.17962ZM52.9039 12.7951C51.9679 14.3906 49.9895 14.9011 48.2451 14.9011C46.6922 14.9011 44.3735 14.497 44.3735 12.6037C44.3735 10.7317 46.6922 10.3275 48.2451 10.3275C49.9895 10.3275 51.9679 10.8167 52.9039 12.4335V12.7951Z" fill="currentcolor"/>
<path d="M66.6491 13.88C65.9471 14.263 65.2026 14.582 64.3304 14.582C63.1178 14.582 62.118 13.9439 62.118 12.6462V6.58345H67.2022V4.60508H62.118V1.90342H59.6291V4.60508H57.3742V6.58345H59.6291V13.0504C59.6291 15.4755 61.4373 16.6881 63.7135 16.6881C65.0537 16.6881 66.3513 16.2413 67.3086 15.6031L66.6491 13.88Z" fill="currentcolor"/>
<path d="M70.8799 3.00961C71.7947 3.00961 72.4541 2.3927 72.4541 1.62688C72.4541 0.818508 71.7947 0.244141 70.8799 0.244141C69.9652 0.244141 69.2845 0.818508 69.2845 1.62688C69.2845 2.3927 69.9652 3.00961 70.8799 3.00961ZM72.135 4.60508H69.6674V16.2626H72.135V4.60508Z" fill="currentcolor"/>
<path d="M89.0003 4.60508H86.3411L81.7249 13.8588L77.1087 4.60508H74.3858L80.3848 16.2626H83.0226L89.0003 4.60508Z" fill="currentcolor"/>
</svg>
