<svg width="179" height="181" viewBox="0 0 179 181" fill="none" xmlns="http://www.w3.org/2000/svg">
<path d="M121.456 88.1712C121.346 87.3705 120.848 86.622 119.981 86.1214L115.54 83.5564C113.828 82.5882 111.336 82.9511 109.995 84.3676L55.9775 141.121C54.6287 142.533 52.1368 142.896 50.4339 141.912L35.3613 133.259C34.4945 132.758 33.9962 132.01 33.8862 131.209L36.7887 152.943C36.8987 153.743 37.397 154.492 38.2638 154.993L53.3364 163.646C55.0394 164.63 57.5389 164.271 58.8801 162.855L112.897 106.101C114.246 104.689 116.742 104.319 118.438 105.298L122.879 107.863C123.755 108.348 124.253 109.096 124.359 109.905L121.456 88.1712Z" fill="black" stroke="black" stroke-miterlimit="10"/>
<path d="M147.371 68.4478L144.469 46.7153C144.573 47.4918 144.308 48.3216 143.642 49.0122L137.669 55.2888L140.571 77.0212L146.544 70.7447C147.202 70.0496 147.475 69.2243 147.371 68.4478Z" fill="#F0F3F3" stroke="black" stroke-miterlimit="10"/>
<path d="M89.5379 69.8298C89.4279 69.029 88.9295 68.2803 88.0701 67.784L83.6276 65.2184C81.9154 64.25 79.4153 64.6085 78.0738 66.0253L74.5517 69.726C73.2147 71.1352 70.7222 71.4981 69.0144 70.522L64.572 67.9564C62.8597 66.9881 60.3596 67.3466 59.0181 68.7634L55.5049 72.4487C54.1558 73.8611 51.6589 74.2317 49.9632 73.2524L45.5207 70.6868C43.8085 69.7184 41.3084 70.0769 39.9713 71.486L36.4492 75.1867C35.1 76.5991 32.6032 76.9697 30.9075 75.9904L26.465 73.4248C25.5968 72.9439 25.0984 72.1952 24.9884 71.3943L27.8917 93.1326C28.0017 93.9335 28.4925 94.6777 29.3595 95.1784L33.802 97.744C35.5142 98.7124 38.0067 98.3495 39.3525 96.925L42.8747 93.2243C44.2117 91.8152 46.7118 91.4567 48.4196 92.4327L52.8621 94.9984C54.5744 95.9667 57.0668 95.6038 58.4127 94.1793L61.926 90.494C63.2751 89.0816 65.7796 88.7154 67.4753 89.6947L71.9178 92.2603C73.63 93.2287 76.1225 92.8657 77.4595 91.4566L80.9817 87.756C82.3308 86.3436 84.8309 85.9851 86.531 86.9567L90.9735 89.5223C91.8417 90.0033 92.3402 90.7519 92.4502 91.5528L89.5468 69.8145L89.5379 69.8298Z" fill="black" stroke="black" stroke-miterlimit="10"/>
<path d="M148.768 85.7085C149.426 85.0134 149.699 84.188 149.595 83.4116L146.693 61.6792C146.797 62.4556 146.532 63.2854 145.866 63.9761L142.345 67.6759C141.683 68.3786 141.415 69.1963 141.518 69.9728L144.42 91.7052C144.316 90.9288 144.582 90.099 145.251 89.4006L148.768 85.7085Z" fill="#F0F3F3" stroke="black" stroke-miterlimit="10"/>
<path d="M150.99 100.659C151.653 99.9558 151.925 99.1304 151.814 98.3495L148.912 76.6171C149.016 77.3936 148.751 78.2233 148.088 78.9261L144.567 82.6259C143.905 83.3287 143.637 84.1463 143.74 84.9228L146.642 106.655C146.539 105.879 146.804 105.049 147.469 104.358L150.99 100.659Z" fill="#F0F3F3" stroke="black" stroke-miterlimit="10"/>
<path d="M153.209 115.609C153.878 114.91 154.143 114.08 154.037 113.292L151.135 91.5595C151.238 92.3359 150.969 93.1734 150.307 93.8762L146.785 97.576C146.128 98.2711 145.855 99.0965 145.958 99.8729L148.86 121.605C148.757 120.829 149.022 119.999 149.687 119.308L153.209 115.609Z" fill="#F0F3F3" stroke="black" stroke-miterlimit="10"/>
<path d="M123.676 103.143C123.566 102.342 123.068 101.594 122.201 101.093L117.759 98.5275C116.89 98.0466 116.392 97.2979 116.282 96.4971L119.185 118.235C119.295 119.036 119.794 119.784 120.653 120.28L125.095 122.846C125.971 123.331 126.47 124.08 126.575 124.889L123.672 103.151L123.676 103.143Z" fill="black" stroke="black" stroke-miterlimit="10"/>
<path d="M125.895 118.093C125.785 117.292 125.287 116.543 124.428 116.047L119.985 113.482C119.117 113.001 118.619 112.252 118.509 111.451L121.412 133.189C121.522 133.99 122.013 134.734 122.88 135.235L127.322 137.8C128.19 138.281 128.689 139.03 128.799 139.831L125.895 118.093Z" fill="black" stroke="black" stroke-miterlimit="10"/>
<path d="M156.266 128.249L153.364 106.516C153.468 107.293 153.198 108.13 152.536 108.833L132.189 130.213C130.84 131.625 128.344 131.996 126.648 131.017L122.207 128.452C121.331 127.967 120.833 127.218 120.728 126.41L123.63 148.143C123.74 148.944 124.238 149.692 125.105 150.193L129.546 152.758C131.258 153.726 133.75 153.363 135.095 151.939L155.443 130.558C156.112 129.86 156.378 129.03 156.271 128.242L156.266 128.249Z" fill="#F0F3F3" stroke="black" stroke-miterlimit="10"/>
<path d="M129.124 131.535C128.255 131.586 127.382 131.431 126.654 131.01L122.211 128.444C121.335 127.959 120.837 127.21 120.731 126.401L123.635 148.139C123.745 148.94 124.243 149.689 125.11 150.19L129.552 152.755C130.26 153.143 131.083 153.312 131.911 153.278L129.124 131.535Z" fill="black" stroke="black" stroke-miterlimit="10"/>
<path d="M143 44.6397C144.703 45.6234 144.997 47.5748 143.656 48.9915L140.113 52.7104C138.776 54.1194 139.059 56.0543 140.739 57.0247L145.212 59.6078C146.924 60.5761 147.218 62.5275 145.873 63.9519L142.351 67.6522C141.002 69.0644 141.291 71.0235 142.999 71.9995L147.441 74.5649C149.153 75.5332 149.443 77.4923 148.089 78.9122L144.567 82.6125C143.218 84.0248 143.508 85.9839 145.216 86.9599L149.658 89.5253C151.37 90.4936 151.652 92.4483 150.298 93.8682L146.776 97.5685C145.427 98.9807 145.724 100.944 147.432 101.92L151.874 104.486C153.586 105.454 153.868 107.409 152.515 108.829L132.164 130.212C130.815 131.624 128.319 131.994 126.623 131.015L122.181 128.45C120.469 127.481 120.179 125.522 121.533 124.102L125.055 120.402C126.392 118.993 126.114 117.031 124.406 116.055L119.964 113.489C118.252 112.521 117.97 110.566 119.324 109.146L122.837 105.461C124.186 104.049 123.893 102.078 122.193 101.107L117.751 98.5411C116.039 97.5728 115.757 95.6181 117.098 94.2014L120.62 90.5011C121.969 89.0889 121.676 87.1176 119.976 86.1461L115.534 83.5807C113.822 82.6124 111.33 82.9753 109.989 84.392L55.9644 141.151C54.6154 142.564 52.1232 142.926 50.42 141.943L35.345 133.288C33.6418 132.304 33.3479 130.353 34.6892 128.936L88.7135 72.1769C90.0625 70.7647 89.7697 68.7935 88.0774 67.8264L83.6353 65.261C81.9232 64.2927 79.4233 64.6511 78.082 66.0678L74.5601 69.7681C73.2232 71.1771 70.7266 71.5477 69.0233 70.564L64.5812 67.9986C62.8691 67.0303 60.3692 67.3888 59.0279 68.8055L55.5149 72.4904C54.1659 73.9027 51.6692 74.2732 49.9737 73.294L45.5315 70.7286C43.8194 69.7603 41.3195 70.1188 39.9826 71.5278L36.4608 75.2281C35.1118 76.6403 32.6151 77.0109 30.9195 76.0317L26.4774 73.4663C24.7653 72.498 24.4835 70.5433 25.8369 69.1234L46.1874 47.7404C47.5364 46.3282 50.0331 45.9576 51.7286 46.9368L56.1708 49.5022C57.8828 50.4705 60.3629 50.1108 61.712 48.6986L65.2338 44.9983C66.5828 43.586 69.0872 43.2199 70.7827 44.1991L75.2249 46.7645C76.9369 47.7328 79.4171 47.3731 80.7661 45.9609L84.2879 42.2606C85.6369 40.8484 88.1413 40.4823 89.8368 41.4615L94.279 44.0269C95.9911 44.9952 98.4712 44.6355 99.8202 43.2233L103.342 39.523C104.691 38.1107 107.183 37.7478 108.887 38.7315L113.329 41.2969C115.033 42.2607 117.533 41.9023 118.874 40.4856L122.396 36.7853C123.745 35.3731 126.237 35.0102 127.941 35.9938L143.015 44.6486L143 44.6397Z" fill="#F0F3F3" stroke="black" stroke-miterlimit="10"/>
</svg>
