<svg width="234" height="155" viewBox="0 0 234 155" fill="none" xmlns="http://www.w3.org/2000/svg">
<g id="Group">
<g id="Group_2">
<g id="Group_3">
<path id="Vector" d="M1.01855 47.9141L31.0102 54.6073L70.1565 32.0086C76.6438 28.2628 87.2558 28.2628 93.7431 32.0086L210.845 99.6153L152.08 133.542V154.346C147.741 154.371 143.394 153.441 140.101 151.547L5.88407 74.0611C2.64039 72.1923 1.01855 69.7225 1.01855 67.2527V47.9141Z" fill="#F0F3F3"/>
<path id="Vector_2" d="M210.844 99.6168L215.026 102.029L232.817 103.61V107.627C232.817 110.097 231.195 112.567 227.951 114.436L163.679 151.54C160.484 153.384 156.286 154.315 152.071 154.339V133.535L210.835 99.6085L210.844 99.6168Z" fill="#F0F3F3"/>
</g>
<path id="Vector_3" d="M1.00824 47.9139L30.9998 54.607L70.1462 32.0084C76.6335 28.2625 87.2455 28.2625 93.7328 32.0084L215.016 102.035L232.807 103.616V107.634C232.807 110.103 231.185 112.573 227.942 114.442L163.669 151.547C157.182 155.293 146.57 155.293 140.083 151.547L5.86551 74.0608C2.62184 72.192 1 69.7222 1 67.2524V47.9139H1.00824Z" stroke="#000100" stroke-width="0.842578" stroke-linecap="round" stroke-linejoin="round"/>
<path id="Vector_4" d="M201.4 69.5657C199.572 66.6348 195.629 62.8231 192.632 61.0942L93.7246 3.9842C87.2372 0.238338 76.6253 0.238338 70.138 3.9842L5.86551 41.0889C-0.621836 44.8347 -0.621836 50.9598 5.86551 54.7057L104.773 111.816C107.761 113.545 111.713 117.356 113.541 120.287L121.839 133.583C123.667 136.514 127.61 140.325 130.607 142.054L140.074 147.521C146.562 151.267 157.174 151.267 163.661 147.521L227.934 110.416C234.421 106.67 234.421 100.545 227.934 96.7993L218.466 91.3328C215.478 89.604 211.526 85.7923 209.698 82.8614L201.4 69.5657Z" fill="#E9EAEB" stroke="#000100" stroke-width="0.842578" stroke-linecap="round" stroke-linejoin="round"/>
</g>
<g id="Group_4">
<path id="Vector_5" d="M117.481 30.1262C115.794 29.1547 113.044 29.1547 111.356 30.1262L49.6194 65.7654C47.9317 66.7369 47.9317 68.3258 49.6194 69.2972L111.142 104.813C112.83 105.784 115.58 105.784 117.267 104.813L179.004 69.1737C180.692 68.2023 180.692 66.6134 179.004 65.6419L117.481 30.1262Z" fill="#000100"/>
<g id="Group_5">
<path id="Vector_6" d="M128.315 35.0185L125.549 26.4977H102.843L100.077 35.0185C99.8221 35.8006 100.217 36.6486 101.263 37.2495L111.134 42.9466C112.821 43.918 115.571 43.918 117.259 42.9466L127.13 37.2495C128.175 36.6486 128.571 35.8006 128.315 35.0185Z" fill="#777E87"/>
<path id="Vector_7" d="M100.077 35.0185C99.8221 35.8006 100.217 36.6486 101.263 37.2495L111.134 42.9466C112.015 43.457 113.192 43.6875 114.353 43.671V27.5021L110.623 26.4977H102.843L100.077 35.0185Z" fill="#000100"/>
<path id="Vector_8" d="M128.315 35.0185L125.549 26.4977H102.843L100.077 35.0185C99.8221 35.8006 100.217 36.6486 101.263 37.2495L111.134 42.9466C112.821 43.918 115.571 43.918 117.259 42.9466L127.13 37.2495C128.175 36.6486 128.571 35.8006 128.315 35.0185Z" stroke="#000100" stroke-width="0.842578" stroke-linecap="round" stroke-linejoin="round"/>
<path id="Vector_9" d="M116.66 20.8651C115.31 20.083 113.087 20.083 111.737 20.8651L103.801 25.4507C102.451 26.2328 102.451 27.5089 103.801 28.291L111.737 32.8766C113.087 33.6587 115.31 33.6587 116.66 32.8766L124.597 28.291C125.947 27.5089 125.947 26.2328 124.597 25.4507L116.66 20.8651Z" fill="#777E87" stroke="#000100" stroke-width="0.842578" stroke-linecap="round" stroke-linejoin="round"/>
</g>
<g id="Group_6">
<path id="Vector_10" d="M111.08 44.9526L108.314 36.4318H85.608L82.8418 44.9526C82.5866 45.7347 82.9818 46.5826 84.0273 47.1836L93.8984 52.8806C95.5861 53.8521 98.3358 53.8521 100.023 52.8806L109.894 47.1836C110.94 46.5826 111.335 45.7347 111.08 44.9526Z" fill="#777E87"/>
<path id="Vector_11" d="M82.8439 44.9526C82.5887 45.7347 82.9839 46.5826 84.0294 47.1836L93.9004 52.8806C94.7813 53.3911 95.9586 53.6216 97.1194 53.6051V37.4361L93.39 36.4318H85.6101L82.8439 44.9526Z" fill="#000100"/>
<path id="Vector_12" d="M111.08 44.9526L108.314 36.4318H85.608L82.8418 44.9526C82.5866 45.7347 82.9818 46.5826 84.0273 47.1836L93.8984 52.8806C95.586 53.8521 98.3358 53.8521 100.023 52.8806L109.894 47.1836C110.94 46.5826 111.335 45.7347 111.08 44.9526Z" stroke="#000100" stroke-width="0.842578" stroke-linecap="round" stroke-linejoin="round"/>
<path id="Vector_13" d="M99.427 30.7992C98.0768 30.0171 95.854 30.0171 94.5039 30.7992L86.5676 35.3848C85.2174 36.1669 85.2174 37.443 86.5676 38.2251L94.5039 42.8107C95.854 43.5928 98.0768 43.5928 99.427 42.8107L107.363 38.2251C108.713 37.443 108.713 36.1669 107.363 35.3848L99.427 30.7992Z" fill="#777E87" stroke="#000100" stroke-width="0.842578" stroke-linecap="round" stroke-linejoin="round"/>
</g>
<g id="Group_7">
<path id="Vector_14" d="M93.8656 54.8995L91.0995 46.3787H68.3938L65.6276 54.8995C65.3724 55.6816 65.7676 56.5296 66.8131 57.1306L76.6841 62.8275C78.3718 63.799 81.1215 63.799 82.8092 62.8275L92.6801 57.1306C93.7257 56.5296 94.1209 55.6816 93.8656 54.8995Z" fill="#777E87"/>
<path id="Vector_15" d="M65.6297 54.8995C65.3745 55.6816 65.7696 56.5296 66.8152 57.1305L76.6861 62.8275C77.567 63.338 78.7443 63.5685 79.9051 63.552V47.383L76.1757 46.3787H68.3958L65.6297 54.8995Z" fill="#000100"/>
<path id="Vector_16" d="M93.8656 54.8995L91.0995 46.3787H68.3938L65.6276 54.8995C65.3724 55.6816 65.7676 56.5296 66.8131 57.1306L76.6841 62.8275C78.3718 63.799 81.1215 63.799 82.8092 62.8275L92.6801 57.1306C93.7257 56.5296 94.1209 55.6816 93.8656 54.8995Z" stroke="#000100" stroke-width="0.842578" stroke-linecap="round" stroke-linejoin="round"/>
<path id="Vector_17" d="M82.2107 40.7464C80.8605 39.9643 78.6377 39.9643 77.2875 40.7464L69.3512 45.332C68.0011 46.1141 68.0011 47.3901 69.3512 48.1723L77.2875 52.7578C78.6377 53.5399 80.8605 53.5399 82.2107 52.7578L90.147 48.1723C91.4971 47.3901 91.4971 46.1141 90.147 45.332L82.2107 40.7464Z" fill="#777E87" stroke="#000100" stroke-width="0.842578" stroke-linecap="round" stroke-linejoin="round"/>
</g>
<g id="Group_8">
<path id="Vector_18" d="M76.658 64.8347L73.8918 56.3138H51.1861L48.42 64.8347C48.1647 65.6168 48.5599 66.4647 49.6054 67.0657L59.4764 72.7627C61.1641 73.7342 63.9138 73.7342 65.6015 72.7627L75.4725 67.0657C76.518 66.4647 76.9132 65.6168 76.658 64.8347Z" fill="#777E87"/>
<path id="Vector_19" d="M48.422 64.8347C48.1668 65.6168 48.562 66.4647 49.6075 67.0657L59.4785 72.7627C60.3594 73.2731 61.5367 73.5037 62.6975 73.4872V57.3182L58.9681 56.3138H51.1882L48.422 64.8347Z" fill="#000100"/>
<path id="Vector_20" d="M76.658 64.8347L73.8918 56.3138H51.1861L48.42 64.8347C48.1647 65.6168 48.5599 66.4647 49.6054 67.0657L59.4764 72.7627C61.1641 73.7342 63.9138 73.7342 65.6015 72.7627L75.4725 67.0657C76.518 66.4647 76.9132 65.6168 76.658 64.8347Z" stroke="#000100" stroke-width="0.842578" stroke-linecap="round" stroke-linejoin="round"/>
<path id="Vector_21" d="M65.0051 50.6813C63.6549 49.8992 61.4321 49.8992 60.082 50.6813L52.1457 55.2669C50.7955 56.049 50.7955 57.3251 52.1457 58.1072L60.082 62.6928C61.4321 63.4749 63.6549 63.4749 65.0051 62.6928L72.9414 58.1072C74.2915 57.3251 74.2915 56.049 72.9414 55.2669L65.0051 50.6813Z" fill="#777E87" stroke="#000100" stroke-width="0.842578" stroke-linecap="round" stroke-linejoin="round"/>
</g>
<g id="Group_9">
<path id="Vector_22" d="M145.525 44.9516L142.759 36.4308H120.053L117.287 44.9516C117.032 45.7337 117.427 46.5817 118.473 47.1827L128.344 52.8797C130.031 53.8511 132.781 53.8511 134.469 52.8797L144.34 47.1827C145.385 46.5817 145.78 45.7337 145.525 44.9516Z" fill="#E9EAEB"/>
<path id="Vector_23" d="M117.289 44.9516C117.034 45.7337 117.429 46.5817 118.475 47.1827L128.346 52.8797C129.227 53.3901 130.404 53.6206 131.565 53.6041V37.4352L127.835 36.4308H120.055L117.289 44.9516Z" fill="#F0F3F3"/>
<path id="Vector_24" d="M145.525 44.9516L142.759 36.4308H120.053L117.287 44.9516C117.032 45.7337 117.427 46.5817 118.473 47.1827L128.344 52.8797C130.031 53.8511 132.781 53.8511 134.469 52.8797L144.34 47.1827C145.385 46.5817 145.78 45.7337 145.525 44.9516Z" stroke="#000100" stroke-width="0.842578" stroke-linecap="round" stroke-linejoin="round"/>
<path id="Vector_25" d="M133.87 30.7992C132.52 30.0171 130.297 30.0171 128.947 30.7992L121.011 35.3848C119.661 36.1669 119.661 37.443 121.011 38.2251L128.947 42.8107C130.297 43.5928 132.52 43.5928 133.87 42.8107L141.807 38.2251C143.157 37.443 143.157 36.1669 141.807 35.3848L133.87 30.7992Z" fill="white" stroke="#000100" stroke-width="0.842578" stroke-linecap="round" stroke-linejoin="round"/>
</g>
<g id="Group_10">
<path id="Vector_26" d="M179.966 64.8363L177.2 56.3155L137.279 46.3787L134.513 54.8995C134.258 55.6816 134.653 56.5296 135.699 57.1306L162.784 72.7726C164.472 73.7441 167.222 73.7441 168.909 72.7726L178.78 67.0756C179.826 66.4746 180.221 65.6267 179.966 64.8446V64.8363Z" fill="#7EE48C"/>
<path id="Vector_27" d="M134.513 54.8976C134.258 55.6797 134.653 56.5277 135.699 57.1287L162.784 72.7707C163.665 73.2812 164.842 73.5117 166.003 73.4952V57.3262L162.274 56.3218L137.271 46.385L134.505 54.9058L134.513 54.8976Z" fill="#7EE48C"/>
<path id="Vector_28" d="M179.966 64.8363L177.2 56.3155L137.279 46.3787L134.513 54.8995C134.258 55.6816 134.653 56.5296 135.699 57.1306L162.784 72.7726C164.472 73.7441 167.222 73.7441 168.909 72.7726L178.78 67.0756C179.826 66.4746 180.221 65.6267 179.966 64.8446V64.8363Z" stroke="#000100" stroke-width="0.842578" stroke-linecap="round" stroke-linejoin="round"/>
<path id="Vector_29" d="M151.096 40.7461C149.746 39.964 147.523 39.964 146.173 40.7461L138.237 45.3317C136.887 46.1138 136.887 47.3899 138.237 48.172L163.388 62.6944C164.738 63.4765 166.961 63.4765 168.311 62.6944L176.247 58.1088C177.597 57.3267 177.597 56.0507 176.247 55.2686L151.096 40.7461Z" fill="#7EE48C" stroke="#000100" stroke-width="0.842578" stroke-linecap="round" stroke-linejoin="round"/>
</g>
<g id="Group_11">
<path id="Vector_30" d="M128.315 54.8995L125.549 46.3787H102.843L100.077 54.8995C99.8221 55.6816 100.217 56.5296 101.263 57.1306L111.134 62.8275C112.821 63.799 115.571 63.799 117.259 62.8275L127.13 57.1306C128.175 56.5296 128.571 55.6816 128.315 54.8995Z" fill="#E9EAEB"/>
<path id="Vector_31" d="M100.077 54.8995C99.8221 55.6816 100.217 56.5296 101.263 57.1305L111.134 62.8275C112.015 63.338 113.192 63.5685 114.353 63.552V47.383L110.623 46.3787H102.843L100.077 54.8995Z" fill="#F0F3F3"/>
<path id="Vector_32" d="M128.315 54.8995L125.549 46.3787H102.843L100.077 54.8995C99.8221 55.6816 100.217 56.5296 101.263 57.1306L111.134 62.8275C112.821 63.799 115.571 63.799 117.259 62.8275L127.13 57.1306C128.175 56.5296 128.571 55.6816 128.315 54.8995Z" stroke="#000100" stroke-width="0.842578" stroke-linecap="round" stroke-linejoin="round"/>
<path id="Vector_33" d="M116.66 40.7461C115.31 39.964 113.087 39.964 111.737 40.7461L103.801 45.3317C102.451 46.1138 102.451 47.3899 103.801 48.172L111.737 52.7576C113.087 53.5397 115.31 53.5397 116.66 52.7576L124.597 48.172C125.947 47.3899 125.947 46.1138 124.597 45.3317L116.66 40.7461Z" fill="white" stroke="#000100" stroke-width="0.842578" stroke-linecap="round" stroke-linejoin="round"/>
</g>
<g id="Group_12">
<path id="Vector_34" d="M111.08 64.8337L108.314 56.3129H85.608L82.8418 64.8337C82.5866 65.6158 82.9818 66.4637 84.0273 67.0647L93.8984 72.7617C95.5861 73.7332 98.3358 73.7332 100.023 72.7617L109.894 67.0647C110.94 66.4637 111.335 65.6158 111.08 64.8337Z" fill="#E9EAEB"/>
<path id="Vector_35" d="M82.8439 64.8337C82.5887 65.6158 82.9839 66.4637 84.0294 67.0647L93.9004 72.7617C94.7813 73.2722 95.9586 73.5027 97.1194 73.4862V57.3173L93.39 56.3129H85.6101L82.8439 64.8337Z" fill="#F0F3F3"/>
<path id="Vector_36" d="M111.08 64.8337L108.314 56.3129H85.608L82.8418 64.8337C82.5866 65.6158 82.9818 66.4637 84.0273 67.0647L93.8984 72.7617C95.586 73.7332 98.3358 73.7332 100.023 72.7617L109.894 67.0647C110.94 66.4637 111.335 65.6158 111.08 64.8337Z" stroke="#000100" stroke-width="0.842578" stroke-linecap="round" stroke-linejoin="round"/>
<path id="Vector_37" d="M99.427 50.6813C98.0768 49.8992 95.854 49.8992 94.5039 50.6813L86.5676 55.2669C85.2174 56.049 85.2174 57.3251 86.5676 58.1072L94.5039 62.6928C95.854 63.4749 98.0768 63.4749 99.427 62.6928L107.363 58.1072C108.713 57.3251 108.713 56.049 107.363 55.2669L99.427 50.6813Z" fill="white" stroke="#000100" stroke-width="0.842578" stroke-linecap="round" stroke-linejoin="round"/>
</g>
<g id="Group_13">
<path id="Vector_38" d="M93.8655 74.7803L91.0994 66.2595H68.3936L65.6275 74.7803C65.3723 75.5624 65.7674 76.4104 66.813 77.0114L76.6839 82.7084C78.3716 83.6798 81.1214 83.6798 82.8091 82.7084L92.68 77.0114C93.7256 76.4104 94.1207 75.5624 93.8655 74.7803Z" fill="#E9EAEB"/>
<path id="Vector_39" d="M65.6296 74.7803C65.3743 75.5624 65.7695 76.4104 66.8151 77.0114L76.686 82.7084C77.5669 83.2188 78.7442 83.4493 79.905 83.4329V67.2639L76.1756 66.2595H68.3957L65.6296 74.7803Z" fill="#F0F3F3"/>
<path id="Vector_40" d="M93.8655 74.7803L91.0994 66.2595H68.3936L65.6275 74.7803C65.3723 75.5624 65.7674 76.4104 66.813 77.0114L76.6839 82.7084C78.3716 83.6798 81.1214 83.6798 82.8091 82.7084L92.68 77.0114C93.7256 76.4104 94.1207 75.5624 93.8655 74.7803Z" stroke="#000100" stroke-width="0.842578" stroke-linecap="round" stroke-linejoin="round"/>
<path id="Vector_41" d="M82.2105 60.628C80.8604 59.8459 78.6375 59.8459 77.2874 60.628L69.3511 65.2135C68.001 65.9956 68.001 67.2717 69.3511 68.0538L77.2874 72.6394C78.6375 73.4215 80.8604 73.4215 82.2105 72.6394L90.1469 68.0538C91.497 67.2717 91.497 65.9956 90.1469 65.2135L82.2105 60.628Z" fill="white" stroke="#000100" stroke-width="0.842578" stroke-linecap="round" stroke-linejoin="round"/>
</g>
<g id="Group_14">
<path id="Vector_42" d="M145.525 64.8347L142.759 56.3138H120.053L117.287 64.8347C117.032 65.6168 117.427 66.4647 118.473 67.0657L128.344 72.7627C130.031 73.7342 132.781 73.7342 134.469 72.7627L144.34 67.0657C145.385 66.4647 145.78 65.6168 145.525 64.8347Z" fill="#E9EAEB"/>
<path id="Vector_43" d="M117.289 64.8347C117.034 65.6168 117.429 66.4647 118.475 67.0657L128.346 72.7627C129.227 73.2731 130.404 73.5037 131.565 73.4872V57.3182L127.835 56.3138H120.055L117.289 64.8347Z" fill="#F0F3F3"/>
<path id="Vector_44" d="M145.525 64.8347L142.759 56.3138H120.053L117.287 64.8347C117.032 65.6168 117.427 66.4647 118.473 67.0657L128.344 72.7627C130.031 73.7342 132.781 73.7342 134.469 72.7627L144.34 67.0657C145.385 66.4647 145.78 65.6168 145.525 64.8347Z" stroke="#000100" stroke-width="0.842578" stroke-linecap="round" stroke-linejoin="round"/>
<path id="Vector_45" d="M133.87 50.6813C132.52 49.8992 130.297 49.8992 128.947 50.6813L121.011 55.2669C119.661 56.049 119.661 57.3251 121.011 58.1072L128.947 62.6928C130.297 63.4749 132.52 63.4749 133.87 62.6928L141.807 58.1072C143.157 57.3251 143.157 56.049 141.807 55.2669L133.87 50.6813Z" fill="white" stroke="#000100" stroke-width="0.842578" stroke-linecap="round" stroke-linejoin="round"/>
</g>
<g id="Group_15">
<path id="Vector_46" d="M128.315 74.7817L125.549 66.2609H102.843L100.077 74.7817C99.8221 75.5638 100.217 76.4117 101.263 77.0127L111.134 82.7097C112.821 83.6812 115.571 83.6812 117.259 82.7097L127.13 77.0127C128.175 76.4117 128.571 75.5638 128.315 74.7817Z" fill="#E9EAEB"/>
<path id="Vector_47" d="M100.077 74.7817C99.8221 75.5638 100.217 76.4117 101.263 77.0127L111.134 82.7097C112.015 83.2201 113.192 83.4507 114.353 83.4342V67.2653L110.623 66.2609H102.843L100.077 74.7817Z" fill="#F0F3F3"/>
<path id="Vector_48" d="M128.315 74.7817L125.549 66.2609H102.843L100.077 74.7817C99.8221 75.5638 100.217 76.4117 101.263 77.0127L111.134 82.7097C112.821 83.6812 115.571 83.6812 117.259 82.7097L127.13 77.0127C128.175 76.4117 128.571 75.5638 128.315 74.7817Z" stroke="#000100" stroke-width="0.842578" stroke-linecap="round" stroke-linejoin="round"/>
<path id="Vector_49" d="M116.66 60.628C115.31 59.8459 113.087 59.8459 111.737 60.628L103.801 65.2135C102.451 65.9956 102.451 67.2717 103.801 68.0538L111.737 72.6394C113.087 73.4215 115.31 73.4215 116.66 72.6394L124.597 68.0538C125.947 67.2717 125.947 65.9956 124.597 65.2135L116.66 60.628Z" fill="white" stroke="#000100" stroke-width="0.842578" stroke-linecap="round" stroke-linejoin="round"/>
</g>
<g id="Group_16">
<path id="Vector_50" d="M111.08 84.7156L108.314 76.1948H85.608L82.8418 84.7156C82.5866 85.4977 82.9818 86.3457 84.0273 86.9467L93.8984 92.6437C95.5861 93.6152 98.3358 93.6152 100.023 92.6437L109.894 86.9467C110.94 86.3457 111.335 85.4977 111.08 84.7156Z" fill="#E9EAEB"/>
<path id="Vector_51" d="M82.8439 84.7156C82.5887 85.4977 82.9839 86.3457 84.0294 86.9467L93.9004 92.6437C94.7813 93.1541 95.9586 93.3846 97.1194 93.3682V77.1992L93.39 76.1948H85.6101L82.8439 84.7156Z" fill="#F0F3F3"/>
<path id="Vector_52" d="M111.08 84.7156L108.314 76.1948H85.608L82.8418 84.7156C82.5866 85.4977 82.9818 86.3457 84.0273 86.9467L93.8984 92.6437C95.586 93.6152 98.3358 93.6152 100.023 92.6437L109.894 86.9467C110.94 86.3457 111.335 85.4977 111.08 84.7156Z" stroke="#000100" stroke-width="0.842578" stroke-linecap="round" stroke-linejoin="round"/>
<path id="Vector_53" d="M99.427 70.5633C98.0768 69.7812 95.854 69.7812 94.5039 70.5633L86.5676 75.1489C85.2174 75.931 85.2174 77.207 86.5676 77.9891L94.5039 82.5747C95.854 83.3568 98.0768 83.3568 99.427 82.5747L107.363 77.9891C108.713 77.207 108.713 75.931 107.363 75.1489L99.427 70.5633Z" fill="white" stroke="#000100" stroke-width="0.842578" stroke-linecap="round" stroke-linejoin="round"/>
</g>
<g id="Group_17">
<path id="Vector_54" d="M162.751 74.7817L159.985 66.2609H137.279L134.513 74.7817C134.258 75.5638 134.653 76.4117 135.699 77.0127L145.57 82.7097C147.257 83.6812 150.007 83.6812 151.695 82.7097L161.566 77.0127C162.611 76.4117 163.006 75.5638 162.751 74.7817Z" fill="#E9EAEB"/>
<path id="Vector_55" d="M134.515 74.7817C134.26 75.5638 134.655 76.4117 135.701 77.0127L145.572 82.7097C146.453 83.2201 147.63 83.4507 148.791 83.4342V67.2653L145.061 66.2609H137.282L134.515 74.7817Z" fill="#F0F3F3"/>
<path id="Vector_56" d="M162.751 74.7817L159.985 66.2609H137.279L134.513 74.7817C134.258 75.5638 134.653 76.4117 135.699 77.0127L145.57 82.7097C147.257 83.6812 150.007 83.6812 151.695 82.7097L161.566 77.0127C162.611 76.4117 163.006 75.5638 162.751 74.7817Z" stroke="#000100" stroke-width="0.842578" stroke-linecap="round" stroke-linejoin="round"/>
<path id="Vector_57" d="M151.098 60.628C149.748 59.8459 147.525 59.8459 146.175 60.628L138.239 65.2135C136.889 65.9956 136.889 67.2717 138.239 68.0538L146.175 72.6394C147.525 73.4215 149.748 73.4215 151.098 72.6394L159.035 68.0538C160.385 67.2717 160.385 65.9956 159.035 65.2135L151.098 60.628Z" fill="white" stroke="#000100" stroke-width="0.842578" stroke-linecap="round" stroke-linejoin="round"/>
</g>
<g id="Group_18">
<path id="Vector_58" d="M145.525 84.717L142.759 76.1962H120.053L117.287 84.717C117.032 85.4991 117.427 86.347 118.473 86.948L128.344 92.6451C130.031 93.6165 132.781 93.6165 134.469 92.6451L144.34 86.948C145.385 86.347 145.78 85.4991 145.525 84.717Z" fill="#E9EAEB"/>
<path id="Vector_59" d="M117.289 84.717C117.034 85.4991 117.429 86.347 118.475 86.948L128.346 92.645C129.227 93.1555 130.404 93.386 131.565 93.3695V77.2006L127.835 76.1962H120.055L117.289 84.717Z" fill="#F0F3F3"/>
<path id="Vector_60" d="M145.525 84.717L142.759 76.1962H120.053L117.287 84.717C117.032 85.4991 117.427 86.347 118.473 86.948L128.344 92.645C130.031 93.6165 132.781 93.6165 134.469 92.645L144.34 86.948C145.385 86.347 145.78 85.4991 145.525 84.717Z" stroke="#000100" stroke-width="0.842578" stroke-linecap="round" stroke-linejoin="round"/>
<path id="Vector_61" d="M133.87 70.5633C132.52 69.7812 130.297 69.7812 128.947 70.5633L121.011 75.1489C119.661 75.931 119.661 77.207 121.011 77.9891L128.947 82.5747C130.297 83.3568 132.52 83.3568 133.87 82.5747L141.807 77.9891C143.157 77.207 143.157 75.931 141.807 75.1489L133.87 70.5633Z" fill="white" stroke="#000100" stroke-width="0.842578" stroke-linecap="round" stroke-linejoin="round"/>
</g>
<g id="Group_19">
<path id="Vector_62" d="M128.315 94.6638L125.549 86.1429H102.843L100.077 94.6638C99.8221 95.4459 100.217 96.2938 101.263 96.8948L111.134 102.592C112.821 103.563 115.571 103.563 117.259 102.592L127.13 96.8948C128.175 96.2938 128.571 95.4459 128.315 94.6638Z" fill="#E9EAEB"/>
<path id="Vector_63" d="M100.077 94.6638C99.8221 95.4459 100.217 96.2938 101.263 96.8948L111.134 102.592C112.015 103.102 113.192 103.333 114.353 103.316V87.1473L110.623 86.1429H102.843L100.077 94.6638Z" fill="#F0F3F3"/>
<path id="Vector_64" d="M128.315 94.6638L125.549 86.1429H102.843L100.077 94.6638C99.8221 95.4459 100.217 96.2938 101.263 96.8948L111.134 102.592C112.821 103.563 115.571 103.563 117.259 102.592L127.13 96.8948C128.175 96.2938 128.571 95.4459 128.315 94.6638Z" stroke="#000100" stroke-width="0.842578" stroke-linecap="round" stroke-linejoin="round"/>
<path id="Vector_65" d="M116.66 80.51C115.31 79.7279 113.087 79.7279 111.737 80.51L103.801 85.0956C102.451 85.8777 102.451 87.1538 103.801 87.9359L111.737 92.5215C113.087 93.3036 115.31 93.3036 116.66 92.5215L124.597 87.9359C125.947 87.1538 125.947 85.8777 124.597 85.0956L116.66 80.51Z" fill="white" stroke="#000100" stroke-width="0.842578" stroke-linecap="round" stroke-linejoin="round"/>
</g>
<g id="Group_20">
<path id="Vector_66" d="M79.1289 66.2916L78.3056 66.7691L77.8281 66.4892C78.2562 66.2257 78.4867 65.8964 78.0916 65.5836L78.7255 65.2213L82.4055 67.3453L81.681 67.7652L79.1289 66.2916Z" fill="#000100"/>
<path id="Vector_67" d="M97.0734 57.1946C97.1639 56.7254 97.4109 56.289 96.9417 56.0174C96.6041 55.8198 96.1924 55.7951 95.8714 55.9762C95.5091 56.1902 95.5585 56.4619 96.0196 56.7501L95.3445 57.1452C94.513 56.6677 94.406 56.1161 95.2704 55.6139C96.0607 55.1611 97.0404 55.2106 97.6743 55.5728C98.3659 55.968 98.2177 56.429 98.0777 56.8571C97.9789 57.1205 97.8884 57.4498 97.9954 57.6557L99.6667 56.6924L100.268 57.0382L97.6661 58.5448C96.991 58.1249 96.9993 57.631 97.0898 57.2029L97.0734 57.1946Z" fill="#000100"/>
<path id="Vector_68" d="M113.51 47.9399L114.202 47.5447C114.663 47.7835 115.157 47.8493 115.659 47.5612C116.062 47.3306 116.079 47.0672 115.708 46.8532C115.354 46.6473 114.918 46.6556 114.473 46.9108L114.251 47.0425L113.699 46.7214L113.905 46.6062C114.251 46.4086 114.317 46.1698 114.004 45.9887C113.716 45.8241 113.329 45.8241 113.008 46.0052C112.596 46.2439 112.662 46.5156 113.024 46.7461L112.333 47.1413C111.641 46.7132 111.608 46.1698 112.448 45.6841C113.205 45.2478 114.07 45.1819 114.679 45.5359C115.091 45.7747 115.066 46.0628 114.827 46.3345H114.835C115.412 46.1369 115.98 46.1534 116.49 46.4415C117.248 46.8779 116.992 47.4459 116.251 47.8822C115.313 48.4256 114.309 48.4009 113.502 47.9399H113.51Z" fill="#000100"/>
<path id="Vector_69" d="M95.7773 77.4541C95.1269 77.0836 94.7317 76.7131 94.6906 76.3097C94.6576 76.0216 94.8223 75.7499 95.308 75.4618C96.0325 75.0419 96.864 75.0255 97.4979 75.2889L96.8064 75.6923C96.5265 75.5935 96.2054 75.5935 95.8843 75.7746C95.3574 76.0792 95.4974 76.4579 96.1478 76.8284H96.156C96.1231 76.5814 96.2054 76.3591 96.6253 76.1122C97.3004 75.7252 98.4118 75.6923 99.1939 76.1369C99.943 76.5732 99.8772 77.2153 99.128 77.6517C98.0907 78.2527 96.7734 78.0139 95.7773 77.4541ZM98.527 76.5403C98.1072 76.3015 97.5061 76.285 97.111 76.5156C96.6664 76.7708 96.7076 77.1001 97.1357 77.3388C97.5473 77.5776 98.1319 77.5776 98.5353 77.3388C98.9304 77.1165 98.9222 76.7625 98.527 76.5403Z" fill="#000100"/>
<path id="Vector_70" d="M113.668 67.9532L114.376 67.5415C114.796 67.7144 115.265 67.6403 115.635 67.418C116.047 67.1793 116.006 66.8582 115.619 66.6359C115.183 66.389 114.656 66.4136 114.277 66.6359C114.005 66.7924 113.898 66.9817 113.915 67.1134L113.223 67.5168L111.577 66.1667L113.717 64.9318L114.318 65.2775L112.68 66.2243L113.33 66.7594H113.339C113.355 66.5783 113.528 66.3807 113.857 66.1831C114.499 65.8127 115.57 65.755 116.36 66.2078C117.126 66.6442 117.043 67.3028 116.253 67.7638C115.446 68.2248 114.434 68.3236 113.66 67.9532H113.668Z" fill="#000100"/>
<path id="Vector_71" d="M130.226 57.5737C129.575 57.2032 129.18 56.8328 129.139 56.4294C129.106 56.1412 129.271 55.8696 129.757 55.5814C130.481 55.1616 131.312 55.1451 131.946 55.4085L131.255 55.8119C130.975 55.7131 130.654 55.7131 130.333 55.8943C129.806 56.1989 129.946 56.5776 130.596 56.948H130.604C130.572 56.7011 130.654 56.4788 131.074 56.2318C131.749 55.8448 132.86 55.8119 133.642 56.2565C134.391 56.6928 134.326 57.335 133.568 57.7713C132.531 58.3723 131.214 58.1335 130.218 57.5737H130.226ZM132.975 56.6599C132.556 56.4212 131.955 56.4047 131.559 56.6352C131.115 56.8904 131.156 57.2197 131.584 57.4585C131.996 57.6972 132.58 57.6972 132.984 57.4585C133.379 57.2362 133.371 56.8822 132.975 56.6599Z" fill="#000100"/>
<path id="Vector_72" d="M113.667 85.5695H113.659L111.856 86.5986L111.23 86.2363L113.815 84.7462L114.416 85.092C114.433 85.8494 114.885 86.8126 116.161 87.6112L115.379 88.064C114.087 87.2572 113.692 86.2116 113.667 85.5695Z" fill="#000100"/>
<path id="Vector_73" d="M130.886 77.8984C130.433 77.6349 130.343 77.2809 130.59 76.9599H130.573C130.104 77.0504 129.692 77.0257 129.338 76.8281C128.721 76.4741 128.902 75.9555 129.684 75.5109C130.466 75.0581 131.322 74.9675 131.94 75.3215C132.277 75.5191 132.327 75.7661 132.17 76.0296H132.187C132.73 75.8896 133.331 75.939 133.776 76.1942C134.525 76.6305 134.327 77.2233 133.504 77.7008C132.681 78.1783 131.627 78.3265 130.894 77.8984H130.886ZM131.306 75.7579C131.018 75.5932 130.606 75.6097 130.228 75.8237C129.849 76.046 129.816 76.2848 130.104 76.4494C130.392 76.6141 130.82 76.6058 131.199 76.3836C131.578 76.1695 131.594 75.9225 131.306 75.7579ZM133.035 76.6223C132.664 76.4083 132.154 76.4165 131.709 76.6717C131.265 76.9269 131.232 77.2315 131.602 77.4456C131.956 77.6514 132.45 77.6185 132.895 77.3632C133.315 77.1163 133.381 76.8199 133.035 76.6223Z" fill="#000100"/>
<path id="Vector_74" d="M148.444 67.9703L149.144 67.5669C149.423 67.6574 149.769 67.6656 150.09 67.4763C150.321 67.3446 150.42 67.2046 150.387 67.04C150.346 66.8506 150.131 66.6366 149.753 66.4143H149.745C149.777 66.6613 149.703 66.9082 149.3 67.1387C148.567 67.5668 147.497 67.5915 146.715 67.1387C145.966 66.7024 146.023 66.0603 146.797 65.6075C147.76 65.0477 148.913 65.097 150.148 65.8051C151.317 66.4801 151.72 67.1552 150.65 67.7727C149.893 68.209 149.053 68.2255 148.427 67.9538L148.444 67.9703ZM148.847 65.9203C148.427 65.6816 147.826 65.6898 147.415 65.9285C146.995 66.1673 147.003 66.5131 147.398 66.7436C147.81 66.9823 148.37 66.9988 148.814 66.7436C149.226 66.5048 149.267 66.1591 148.847 65.9203Z" fill="#000100"/>
</g>
</g>
<path id="Vector_75" d="M32.8962 58.5347C30.13 60.1318 25.602 60.1318 22.8358 58.5347L9.58122 50.8783C6.81505 49.2811 6.81505 46.6631 9.58122 45.066L77.1056 6.08433C79.8717 4.48719 84.3997 4.48719 87.1659 6.08433L100.42 13.7407C103.187 15.3378 103.187 17.9558 100.42 19.553L32.8962 58.5347Z" fill="#000100"/>
<g id="Group_21">
<path id="Vector_76" d="M21.5624 50.5233C21.2002 50.7291 20.6486 50.7456 20.3193 50.5562L16.4993 48.3499C16.17 48.1605 16.2029 47.8394 16.5569 47.6336C16.9192 47.4278 17.4708 47.4113 17.8001 47.6007L21.62 49.807C21.9493 49.9964 21.9164 50.3175 21.5624 50.5233Z" fill="#E9EAEB"/>
<path id="Vector_77" d="M33.9711 50.7115C33.6089 50.9173 33.0573 50.9338 32.7279 50.7445L28.908 48.5381C28.5787 48.3487 28.6116 48.0277 28.9656 47.8219C29.3279 47.616 29.8794 47.5996 30.2088 47.7889L34.0287 49.9953C34.358 50.1846 34.3251 50.5057 33.9711 50.7115Z" fill="#E9EAEB"/>
<path id="Vector_78" d="M27.5997 47.0322C27.2375 47.238 26.6859 47.2545 26.3566 47.0651L22.5367 44.8588C22.2073 44.6694 22.2403 44.3483 22.5943 44.1425C22.9565 43.9367 23.5081 43.9202 23.8374 44.1096L27.6574 46.316C27.9867 46.5053 27.9537 46.8264 27.5997 47.0322Z" fill="#E9EAEB"/>
<path id="Vector_79" d="M22.9363 50.5732L22.8375 50.5156C22.4835 50.3097 22.5164 49.964 22.9033 49.7417L26.2376 47.8152C26.6245 47.593 27.2255 47.5765 27.5795 47.7741L27.6783 47.8317C28.0323 48.0375 27.9994 48.3833 27.6124 48.6056L24.2782 50.532C23.8912 50.7543 23.2903 50.7708 22.9363 50.5732Z" fill="#E9EAEB"/>
<path id="Vector_80" d="M16.5692 46.8929L16.4704 46.8353C16.1164 46.6295 16.1493 46.2837 16.5363 46.0614L19.8705 44.1349C20.2574 43.9127 20.8584 43.8962 21.2124 44.0938L21.3112 44.1514C21.6652 44.3572 21.6323 44.703 21.2454 44.9253L17.9111 46.8517C17.5242 47.074 16.9232 47.0905 16.5692 46.8929Z" fill="#E9EAEB"/>
<path id="Vector_81" d="M29.3182 54.2514L29.2194 54.1938C28.8654 53.988 28.8984 53.6422 29.2853 53.4199L32.6195 51.4935C33.0064 51.2712 33.6074 51.2547 33.9614 51.4523L34.0602 51.5099C34.4142 51.7158 34.3813 52.0615 33.9944 52.2838L30.6601 54.2103C30.2732 54.4325 29.6722 54.449 29.3182 54.2514Z" fill="#E9EAEB"/>
<path id="Vector_82" d="M43.2744 45.3453C42.9122 45.5511 42.3606 45.5676 42.0313 45.3782L38.2113 43.1719C37.882 42.9825 37.915 42.6615 38.269 42.4556C38.6312 42.2498 39.1828 42.2334 39.5121 42.4227L43.3321 44.6291C43.6614 44.8184 43.6284 45.1395 43.2744 45.3453Z" fill="#E9EAEB"/>
<path id="Vector_83" d="M36.8988 41.665C36.5366 41.8708 35.985 41.8873 35.6557 41.6979L31.8357 39.4916C31.5064 39.3022 31.5394 38.9812 31.8934 38.7753C32.2556 38.5695 32.8072 38.5531 33.1365 38.7424L36.9564 40.9488C37.2858 41.1381 37.2528 41.4592 36.8988 41.665Z" fill="#E9EAEB"/>
<path id="Vector_84" d="M25.8683 41.5256L25.7695 41.4679C25.4155 41.2621 25.4484 40.9164 25.8353 40.6941L29.1695 38.7676C29.5565 38.5454 30.1575 38.5289 30.5115 38.7265L30.6103 38.7841C30.9643 38.9899 30.9313 39.3357 30.5444 39.558L27.2102 41.4844C26.8233 41.7067 26.2223 41.7232 25.8683 41.5256Z" fill="#E9EAEB"/>
<path id="Vector_85" d="M40.1437 39.7878C39.7815 39.9936 39.2299 40.0101 38.9006 39.8207L35.0806 37.6144C34.7513 37.425 34.7842 37.104 35.1382 36.8981C35.5005 36.6923 36.0521 36.6759 36.3814 36.8652L40.2013 39.0716C40.5306 39.2609 40.4977 39.582 40.1437 39.7878Z" fill="#E9EAEB"/>
<path id="Vector_86" d="M52.5672 39.9759C52.2049 40.1817 51.6533 40.1982 51.324 40.0089L47.5041 37.8025C47.1748 37.6132 47.2077 37.2921 47.5617 37.0862C47.9239 36.8804 48.4755 36.864 48.8048 37.0533L52.6248 39.2597C52.9541 39.449 52.9212 39.7701 52.5672 39.9759Z" fill="#E9EAEB"/>
<path id="Vector_87" d="M41.5409 39.8377L41.4421 39.7801C41.0881 39.5743 41.121 39.2285 41.5079 39.0062L44.8422 37.0798C45.2291 36.8575 45.8301 36.841 46.1841 37.0386L46.2829 37.0962C46.6369 37.3021 46.604 37.6478 46.217 37.8701L42.8828 39.7966C42.4959 40.0188 41.8949 40.0353 41.5409 39.8377Z" fill="#E9EAEB"/>
<path id="Vector_88" d="M35.1611 36.1595L35.0623 36.1019C34.7083 35.8961 34.7413 35.5503 35.1282 35.328L38.4624 33.4016C38.8493 33.1793 39.4503 33.1628 39.8043 33.3604L39.9031 33.418C40.2571 33.6238 40.2242 33.9696 39.8373 34.1919L36.503 36.1183C36.1161 36.3406 35.5151 36.3571 35.1611 36.1595Z" fill="#E9EAEB"/>
<path id="Vector_89" d="M47.9122 43.5169L47.8134 43.4593C47.4594 43.2535 47.4923 42.9077 47.8793 42.6854L51.2135 40.759C51.6005 40.5367 52.2014 40.5202 52.5554 40.7178L52.6542 40.7754C53.0082 40.9813 52.9753 41.327 52.5884 41.5493L49.2541 43.4758C48.8672 43.698 48.2662 43.7145 47.9122 43.5169Z" fill="#E9EAEB"/>
<path id="Vector_90" d="M55.8247 38.1009C55.4625 38.3067 54.9109 38.3232 54.5816 38.1339L50.7616 35.9275C50.4323 35.7382 50.4653 35.4171 50.8193 35.2112C51.1815 35.0054 51.7331 34.989 52.0624 35.1783L55.8824 37.3847C56.2117 37.574 56.1787 37.8951 55.8247 38.1009Z" fill="#E9EAEB"/>
<path id="Vector_91" d="M49.4492 34.4206C49.087 34.6264 48.5354 34.6429 48.2061 34.4536L44.3861 32.2472C44.0568 32.0579 44.0898 31.7368 44.4438 31.5309C44.806 31.3251 45.3576 31.3087 45.6869 31.498L49.5069 33.7044C49.8362 33.8937 49.8032 34.2148 49.4492 34.4206Z" fill="#E9EAEB"/>
<path id="Vector_92" d="M61.8727 34.6087C61.5105 34.8146 60.9589 34.831 60.6296 34.6417L56.8096 32.4353C56.4803 32.246 56.5132 31.9249 56.8672 31.7191C57.2295 31.5133 57.7811 31.4968 58.1104 31.6861L61.9303 33.8925C62.2596 34.0819 62.2267 34.4029 61.8727 34.6087Z" fill="#E9EAEB"/>
<path id="Vector_93" d="M55.495 30.9305C55.1328 31.1363 54.5812 31.1528 54.2519 30.9634L50.4319 28.7571C50.1026 28.5677 50.1355 28.2467 50.4896 28.0408C50.8518 27.835 51.4034 27.8186 51.7327 28.0079L55.5526 30.2143C55.8819 30.4036 55.849 30.7247 55.495 30.9305Z" fill="#E9EAEB"/>
<path id="Vector_94" d="M44.4581 30.7901L44.3593 30.7325C44.0053 30.5267 44.0382 30.1809 44.4252 29.9586L47.7594 28.0322C48.1464 27.8099 48.7473 27.7934 49.1013 27.991L49.2001 28.0486C49.5541 28.2545 49.5212 28.6002 49.1343 28.8225L45.8 30.749C45.4131 30.9712 44.8121 30.9877 44.4581 30.7901Z" fill="#E9EAEB"/>
<path id="Vector_95" d="M57.2135 38.1497L57.1147 38.0921C56.7607 37.8863 56.7936 37.5405 57.1806 37.3182L60.5148 35.3918C60.9017 35.1695 61.5027 35.153 61.8567 35.3506L61.9555 35.4083C62.3095 35.6141 62.2766 35.9599 61.8896 36.1821L58.5554 38.1086C58.1685 38.3309 57.5675 38.3473 57.2135 38.1497Z" fill="#E9EAEB"/>
<path id="Vector_96" d="M65.1196 32.7326C64.7574 32.9385 64.2058 32.9549 63.8765 32.7656L60.0566 30.5592C59.7272 30.3699 59.7602 30.0488 60.1142 29.843C60.4764 29.6372 61.028 29.6207 61.3573 29.81L65.1773 32.0164C65.5066 32.2058 65.4736 32.5268 65.1196 32.7326Z" fill="#E9EAEB"/>
<path id="Vector_97" d="M58.742 29.0523C58.3797 29.2582 57.8281 29.2746 57.4988 29.0853L53.6789 26.8789C53.3496 26.6896 53.3825 26.3685 53.7365 26.1627C54.0987 25.9569 54.6503 25.9404 54.9796 26.1297L58.7996 28.3361C59.1289 28.5255 59.096 28.8465 58.742 29.0523Z" fill="#E9EAEB"/>
<path id="Vector_98" d="M71.1676 29.2414C70.8054 29.4472 70.2538 29.4637 69.9245 29.2743L66.1045 27.068C65.7752 26.8786 65.8082 26.5576 66.1622 26.3518C66.5244 26.1459 67.076 26.1295 67.4053 26.3188L71.2252 28.5252C71.5545 28.7145 71.5216 29.0356 71.1676 29.2414Z" fill="#E9EAEB"/>
<path id="Vector_99" d="M64.7963 25.5632C64.434 25.769 63.8825 25.7855 63.5531 25.5961L59.7332 23.3898C59.4039 23.2004 59.4368 22.8794 59.7908 22.6735C60.153 22.4677 60.7046 22.4512 61.0339 22.6406L64.8539 24.8469C65.1832 25.0363 65.1503 25.3574 64.7963 25.5632Z" fill="#E9EAEB"/>
<path id="Vector_100" d="M53.7615 25.4218L53.6627 25.3642C53.3086 25.1584 53.3416 24.8126 53.7285 24.5903L57.0627 22.6639C57.4497 22.4416 58.0507 22.4251 58.4047 22.6227L58.5035 22.6803C58.8575 22.8861 58.8246 23.2319 58.4376 23.4542L55.1034 25.3806C54.7164 25.6029 54.1155 25.6194 53.7615 25.4218Z" fill="#E9EAEB"/>
<path id="Vector_101" d="M67.8503 32.7414C67.4634 32.9636 66.8624 32.9801 66.5084 32.7825L66.4096 32.7249C66.0556 32.5191 66.0885 32.1733 66.4755 31.951L69.8097 30.0246C70.1966 29.8023 70.7976 29.7859 71.1516 29.9834L71.2504 30.041C71.6044 30.2469 71.5715 30.5926 71.1846 30.8149L67.8503 32.7414Z" fill="#E9EAEB"/>
</g>
</g>
</svg>
