<svg width="191" height="166" viewBox="0 0 191 166" fill="none" xmlns="http://www.w3.org/2000/svg">
<g id="Group 48098018">
<path id="Vector" d="M81.5536 39.9277C52.1483 39.9277 25.4998 46.6864 5.96216 57.6216C2.95094 59.0326 1 61.1067 1 63.4913C1 67.6255 6.81036 70.9696 13.9638 70.9696C17.1586 71.0306 20.3163 70.2779 23.1388 68.7825C38.0818 60.1614 58.7221 54.8419 81.5254 54.8419C127.132 54.8419 164.101 76.1479 164.101 102.421C164.101 128.693 127.132 150.014 81.5254 150.014C58.7787 150.014 38.1949 144.708 23.2519 136.143C20.4123 134.592 17.2141 133.814 13.9779 133.886C6.81037 133.886 1.01415 137.23 1.01415 141.35C1.01415 143.565 2.68233 145.583 5.34013 146.909C24.9201 158.042 51.8232 164.928 81.5254 164.928C141.439 164.928 190 136.948 190 102.421C190 67.8936 141.467 39.9277 81.5536 39.9277Z" fill="#F0F3F3" stroke="black" stroke-width="0.769542" stroke-miterlimit="10"/>
<path id="Vector_2" d="M5.97789 57.6021C2.95713 59.0104 1 61.0806 1 63.4605C1 67.5867 6.82877 70.9243 14.0049 70.9243C17.2098 70.9852 20.3775 70.2339 23.2089 68.7415C38.1993 60.137 58.9051 54.8279 81.7806 54.8279C94.5125 54.765 107.188 56.515 119.42 60.0244L126 45.3221C111.545 41.6964 96.6895 39.8844 81.7806 39.9285C52.3104 39.9426 25.5774 46.6881 5.97789 57.6021Z" fill="#7EE48C"/>
<path id="Vector_3" d="M122 59.9277C128.075 59.9277 133 57.0176 133 53.4277C133 49.8379 128.075 46.9277 122 46.9277C115.925 46.9277 111 49.8379 111 53.4277C111 57.0176 115.925 59.9277 122 59.9277Z" fill="#F0F3F3" stroke="black" stroke-width="0.769542" stroke-miterlimit="10" stroke-linecap="round"/>
<path id="Vector_4" d="M81.5536 39.9277C52.1483 39.9277 25.4998 46.6864 5.96216 57.6216C2.95094 59.0326 1 61.1067 1 63.4913C1 67.6255 6.81036 70.9696 13.9638 70.9696C17.1586 71.0306 20.3163 70.2779 23.1388 68.7825C38.0818 60.1614 58.7221 54.8419 81.5254 54.8419C127.132 54.8419 164.101 76.1479 164.101 102.421C164.101 128.693 127.132 150.014 81.5254 150.014C58.7787 150.014 38.1949 144.708 23.2519 136.143C20.4123 134.592 17.2141 133.814 13.9779 133.886C6.81037 133.886 1.01415 137.23 1.01415 141.35C1.01415 143.565 2.68234 145.583 5.34013 146.909C24.9201 158.042 51.8232 164.928 81.5254 164.928C141.439 164.928 190 136.948 190 102.421C190 67.8936 141.467 39.9277 81.5536 39.9277Z" stroke="black" stroke-width="0.769542" stroke-miterlimit="10"/>
<g id="Group">
<path id="Vector_5" d="M5.97476 62.6427C25.5081 51.6956 52.1508 44.9295 81.5498 44.9295C139.924 44.9295 187.556 71.5558 189.902 104.892C189.902 104.03 190.001 103.154 190.001 102.279C190.001 67.7279 141.45 39.7031 81.5498 39.7031C52.1508 39.7031 25.5081 46.4692 5.97476 57.4163C2.96419 58.8289 1.01367 60.9053 1.01367 63.2925C1.03397 64.2256 1.32359 65.1331 1.84762 65.9057C2.8917 64.4544 4.32131 63.3242 5.97476 62.6427Z" fill="black" stroke="black" stroke-width="0.769542" stroke-miterlimit="10"/>
<path id="Vector_6" d="M14.016 139.005C17.2514 138.933 20.449 139.712 23.2879 141.265C38.2277 149.839 58.8069 155.15 81.5487 155.15C127.145 155.15 164.106 133.821 164.106 107.505C164.106 106.629 164.106 105.768 163.979 104.892C161.618 129.993 125.619 149.924 81.5487 149.924C58.8069 149.924 38.2277 144.613 23.2879 136.038C20.449 134.486 17.2514 133.706 14.016 133.778C6.84998 133.778 1.05493 137.126 1.05493 141.251C1.06866 142.185 1.35886 143.094 1.88888 143.864C3.72632 141.025 8.46126 139.005 14.016 139.005Z" fill="black" stroke="black" stroke-width="0.769542" stroke-miterlimit="10"/>
</g>
<g id="Group_2">
<path id="Vector_7" d="M106.385 10.125V46.0176C106.385 51.0603 113.452 55.1426 122.201 55.1426C130.95 55.1426 138.003 51.0603 138.003 46.0176V10.125H106.385Z" fill="white"/>
<path id="Vector_8" d="M106.385 10.125V46.0176C106.385 51.0603 113.452 55.1426 122.201 55.1426C130.95 55.1426 138.003 51.0603 138.003 46.0176V10.125H106.385Z" fill="#F0F3F3" stroke="black" stroke-width="0.769542" stroke-miterlimit="10"/>
<path id="Vector_9" d="M122.201 19.25C130.936 19.25 138.017 15.1646 138.017 10.125C138.017 5.08543 130.936 1 122.201 1C113.466 1 106.385 5.08543 106.385 10.125C106.385 15.1646 113.466 19.25 122.201 19.25Z" fill="black" stroke="black" stroke-width="0.769542" stroke-miterlimit="10" stroke-linecap="round"/>
</g>
<g id="Group_3">
<path id="Vector_10" d="M44.3338 98.1255L81.7326 119.85L74.2415 124.144L48.3337 109.087L39.8532 113.974L34.9629 111.149C39.3869 108.409 41.7897 105.075 37.7897 101.869L44.3338 98.1255Z" fill="black"/>
<path id="Vector_11" d="M76.5747 79.7632L82.6947 83.3228L65.8468 93.041L72.4474 98.5217C72.7867 96.6995 74.5393 94.6231 77.9881 92.6455C81.9479 90.5903 86.3509 89.5351 90.8128 89.5721C95.2747 89.609 99.6597 90.7369 103.585 92.8574C111.345 97.3634 110.496 104.158 102.299 108.861C94.1009 113.565 83.6134 114.653 75.6559 110.839L82.9774 106.601C85.0896 107.386 87.3527 107.681 89.5956 107.463C91.8386 107.245 94.0026 106.521 95.9242 105.344C100.164 102.886 99.8394 99.5811 95.9242 97.2786C93.8263 96.0941 91.4576 95.4716 89.0479 95.4716C86.6383 95.4716 84.2696 96.0941 82.1717 97.2786C79.3449 98.9172 78.2283 100.796 78.3838 102.152L71.3167 106.277L54.5396 92.476L76.5747 79.7632Z" fill="black"/>
<g id="Group_4">
<path id="Vector_12" d="M115.046 82.0651C118.551 84.0991 118.707 86.6276 115.71 88.3509C114.011 89.208 112.122 89.6225 110.219 89.5558C108.317 89.4891 106.462 88.9435 104.827 87.9695C101.307 85.9213 101.237 83.3505 104.162 81.6554C105.86 80.7882 107.752 80.3705 109.658 80.4422C111.563 80.5139 113.418 81.0727 115.046 82.0651ZM113.477 87.0655C114.89 86.2745 114.042 85.0597 111.965 83.8449C109.887 82.6301 107.724 82.1498 106.311 82.9267C104.897 83.7036 105.788 84.9467 107.894 86.1614C110 87.3762 112.063 87.8424 113.42 87.0655" fill="black"/>
<path id="Vector_13" d="M114.974 75.8925L117.448 74.4658L127.059 91.8824L124.6 93.3091L114.974 75.8925Z" fill="black"/>
<path id="Vector_14" d="M126.381 79.4517C128.077 78.5838 129.967 78.1669 131.871 78.2411C133.775 78.3153 135.627 78.8782 137.25 79.8754C140.755 81.9095 140.925 84.4238 137.928 86.1471C136.227 87.0068 134.336 87.4226 132.431 87.3559C130.525 87.2892 128.668 86.7422 127.031 85.7657C123.512 83.7175 123.441 81.175 126.381 79.4517ZM135.695 84.8617C137.109 84.0707 136.246 82.8559 134.169 81.6552C132.091 80.4546 129.929 79.9461 128.586 80.723C127.243 81.4998 128.049 82.7429 130.155 83.9718C132.261 85.2007 134.395 85.6527 135.695 84.8617Z" fill="black"/>
</g>
</g>
</g>
</svg>
